<?xml version="1.0" encoding="utf-8"?>
<!-- Generator: Adobe Illustrator 26.1.0, SVG Export Plug-In . SVG Version: 6.00 Build 0)  -->
<svg version="1.1" id="Layer_1" xmlns="http://www.w3.org/2000/svg" xmlns:xlink="http://www.w3.org/1999/xlink" x="0px" y="0px"
	 viewBox="0 0 341.42 88.54" style="enable-background:new 0 0 341.42 88.54;" xml:space="preserve">
<style type="text/css">
	.st0{fill:#00305B;}
</style>
<g>
	<path class="st0" d="M24.49,69.44c-11.43,0-18.61-3.39-18.61-8.34c0-7.08,11.32-10.77,24.64-10.77c5.51,0,11.52,0.7,17.82,1.74
		c2.5-2.53,4.94-5.19,7.29-7.8c4.69-5.21,11.6-12.71,17.4-17.16c10.93-8.38,24.95-14.45,39.73-14.45c18.35,0,33.07,6.21,33.07,15.47
		c0,5.32-5.23,9.91-14.57,10.27l-0.29-1.71c1.98-0.91,4.37-2.52,4.37-7.57c0-6.57-7.39-13.14-20.98-13.14
		c-13.1,0-20.58,6.15-28.98,14.88c-4.4,4.57-9.14,10.27-13.45,14.68c-3.22,3.3-6.68,6.33-10.27,9.04
		c14.73,2.98,30.33,6.43,44.76,6.43c14.83,0,21.6-3.84,25.06-7.06l0.92,1.38c-3.7,7.64-14.95,14.11-29.34,14.11
		c-18.45,0-34.87-5.17-49.3-9.53C43.71,65.95,33.25,69.44,24.49,69.44z M43.25,56.88c-6.39-1.7-12.33-2.87-17.82-2.87
		c-5.81,0-10.4,2.5-10.4,6.33c0,3.64,3.42,5.79,9.51,5.79C30.81,66.12,37.16,62.23,43.25,56.88z M322.47,24.3h-11.83l-1.67,5.87
		h11.47l-1.38,4.81h-11.47l-2.04,6.94h11.75l-1.39,4.81h-19.05l7.86-27.24h19.15L322.47,24.3z M281.87,31.42L284,24.2h6.01
		c2.17,0,3,1.02,3,2.45c0,2.96-2.73,4.76-6.24,4.76H281.87z M270.54,46.72h6.94l3.05-10.68h3.88c2.73,0,3.28,0.74,3.28,2.18
		c0,1.85-1.02,3.7-1.02,5.73c0,1.66,0.7,2.77,0.7,2.77h7.53v-0.74c-0.7-0.23-1.29-0.78-1.29-2.17c0-2.13,1.11-4.25,1.11-6.57
		c0-2.08-1.06-3.19-2.4-3.56c4.07-1.07,7.26-3.98,7.26-8.1c0-3.74-2.5-6.1-7.44-6.1h-13.41L270.54,46.72z M262.23,41.59h-9.85
		l-2.83,5.13h-7.4l16-27.24h8.04l3.42,27.24h-6.85L262.23,41.59z M261.74,36.92l-1.09-10.31l-5.69,10.31H261.74z M246.27,28.88
		c0-5.55-2.73-10.08-10.31-10.08c-10.13,0-16.42,8.88-16.42,17.9c0,7.35,3.98,10.72,10.5,10.72c7.44,0,12.35-4.58,14.57-10.5h-6.38
		c-1.34,3.33-3.74,5-7.03,5c-3.52,0-4.76-2.27-4.81-5.41c-0.1-5.69,2.96-12.25,8.69-12.25c4.07,0,4.81,2.63,4.81,4.62H246.27z
		 M209.55,38.44l-3.7-18.96h-8.65l-7.86,27.24h6.1l5.64-19.42l3.8,19.42h8.18l7.86-27.24h-5.6L209.55,38.44z M193.46,19.49h-7.12
		l-7.86,27.24h7.12L193.46,19.49z M173.99,19.49h-7.17l-7.86,27.24h16.56l1.44-4.9h-9.43L173.99,19.49z M162.87,69.44l-1.89-14.61
		h-1.78l-7.96,14.61h1.89l2.32-4.37h5.01l0.47,4.37H162.87z M159.74,56.82v0.09l0.01,0.1c0,0.07,0,0.11,0.01,0.12
		c0.01,0.13,0.01,0.3,0.02,0.5c0.01,0.23,0.03,0.47,0.05,0.72l0.56,5.54h-4.37l2.9-5.54c0.26-0.48,0.48-0.99,0.67-1.52l0.04-0.09
		l0.03-0.09l0.02-0.05h0.04C159.73,56.67,159.73,56.74,159.74,56.82z M178.35,68.12h-4.4l2.74-13.29h-1.95l-3.02,14.61h6.34
		L178.35,68.12z M185.11,58h-1.86l-2.37,11.45h1.87L185.11,58z M184.12,54.12c-0.27,0.25-0.4,0.53-0.4,0.86
		c0,0.25,0.08,0.45,0.25,0.6c0.17,0.15,0.38,0.23,0.65,0.23c0.35,0,0.66-0.12,0.93-0.37c0.27-0.25,0.4-0.53,0.4-0.86
		c0-0.23-0.09-0.43-0.26-0.59c-0.17-0.16-0.39-0.24-0.64-0.24C184.7,53.76,184.39,53.88,184.12,54.12z M196.67,61.31
		c0.03-0.19,0.06-0.41,0.07-0.64c0.01-0.07,0.01-0.12,0.01-0.16v-0.05c0-0.86-0.31-1.53-0.93-1.99c-0.62-0.46-1.51-0.69-2.67-0.69
		c-1.58,0-2.99,0.27-4.21,0.8l-2.25,10.85h1.87l2.1-10.07c0.77-0.25,1.5-0.37,2.19-0.37c1.36,0,2.04,0.52,2.04,1.55
		c0,0.21-0.02,0.43-0.07,0.64l-1.72,8.24h1.88L196.67,61.31z M210.41,52.77h-1.87l-1.09,5.33c-0.56-0.17-1.14-0.25-1.73-0.25
		c-1.19,0-2.25,0.3-3.18,0.91c-0.93,0.61-1.68,1.48-2.24,2.62c-0.68,1.38-1.02,2.77-1.02,4.18c0,1.31,0.36,2.32,1.08,3.03
		c0.72,0.7,1.76,1.06,3.1,1.06c1.45,0,2.65-0.27,3.61-0.8L210.41,52.77z M205.38,68.06c-0.45,0.24-1.03,0.35-1.74,0.35
		c-1.67,0-2.51-0.94-2.51-2.82c0-1.22,0.25-2.43,0.76-3.61c0.86-2.04,2.2-3.06,4.02-3.06c0.43,0,0.87,0.07,1.34,0.2L205.38,68.06z
		 M220.75,61.43c0-1.17-0.3-2.07-0.9-2.7c-0.6-0.63-1.46-0.94-2.58-0.94c-1.11,0-2.1,0.32-2.99,0.97c-0.89,0.65-1.58,1.56-2.09,2.73
		c-0.61,1.41-0.91,2.77-0.91,4.07c0,1.33,0.36,2.34,1.07,3.04c0.72,0.7,1.75,1.05,3.12,1.05c1.28,0,2.44-0.27,3.49-0.8l-0.23-1.23
		c-0.99,0.46-1.97,0.69-2.94,0.69c-1.82,0-2.74-0.97-2.74-2.92c0-0.51,0.02-0.89,0.07-1.15c0.03-0.14,0.05-0.26,0.06-0.36
		c0.02-0.17,0.04-0.32,0.06-0.45h7.27C220.68,62.76,220.75,62.1,220.75,61.43z M214.96,59.87c0.67-0.64,1.39-0.95,2.15-0.95
		c1.31,0,1.97,0.76,1.97,2.28c0,0.31-0.04,0.69-0.12,1.13h-5.43C213.81,61.33,214.29,60.51,214.96,59.87z M237.49,58.42
		c-0.66-0.42-1.47-0.63-2.43-0.63c-2.46,0-4.22,1.41-5.27,4.23c-0.42,1.15-0.63,2.28-0.63,3.4c0,1.32,0.32,2.36,0.95,3.11
		c0.63,0.75,1.51,1.12,2.63,1.12c1.02,0,1.86-0.18,2.52-0.55l-0.36-1.14c-0.56,0.19-1.12,0.29-1.68,0.29
		c-1.46,0-2.19-0.92-2.19-2.77c0-1.14,0.23-2.32,0.7-3.55c0.73-1.9,1.89-2.85,3.5-2.85c0.61,0,1.15,0.12,1.63,0.37L237.49,58.42z
		 M241.05,58.71c-0.86,0.65-1.54,1.6-2.04,2.85c-0.59,1.46-0.89,2.87-0.89,4.24c0,1.26,0.3,2.23,0.91,2.91
		c0.6,0.68,1.47,1.02,2.59,1.02c1.13,0,2.14-0.34,3.01-1.03c0.87-0.68,1.56-1.67,2.06-2.95c0.56-1.42,0.84-2.79,0.84-4.11
		c0-1.25-0.3-2.22-0.91-2.89c-0.6-0.68-1.46-1.02-2.58-1.02C242.91,57.73,241.91,58.05,241.05,58.71z M245.74,61.34
		c0,1.18-0.24,2.47-0.7,3.86c-0.72,2.15-1.8,3.22-3.25,3.22c-1.24,0-1.87-0.82-1.87-2.47c0-1.19,0.22-2.45,0.67-3.77
		c0.75-2.18,1.84-3.27,3.28-3.27C245.12,58.92,245.74,59.73,245.74,61.34z M264.38,61.2c0.01-0.03,0.02-0.11,0.03-0.23
		c0.05-0.26,0.07-0.47,0.07-0.65c0-0.8-0.24-1.42-0.71-1.87c-0.48-0.44-1.15-0.66-2.01-0.66c-1.23,0-2.39,0.46-3.47,1.38
		c-0.55-0.92-1.48-1.38-2.81-1.38c-1.2,0-2.44,0.27-3.71,0.8l-2.25,10.85h1.87l2.1-10.09c0.54-0.24,1.11-0.35,1.71-0.35
		c1.17,0,1.75,0.5,1.75,1.51c0,0.22-0.02,0.44-0.06,0.64l-1.72,8.28h1.87l1.93-9.34c0.75-0.73,1.49-1.1,2.21-1.1
		c0.97,0,1.45,0.46,1.45,1.38c0,0.18-0.02,0.38-0.05,0.6c-0.01,0.1-0.03,0.18-0.04,0.22l-1.71,8.24h1.87L264.38,61.2z M270.2,69.61
		c1.19,0,2.25-0.33,3.19-0.98c0.94-0.66,1.69-1.59,2.24-2.81c0.61-1.35,0.92-2.66,0.92-3.95c0-1.32-0.35-2.33-1.06-3.03
		c-0.71-0.7-1.73-1.05-3.06-1.05c-1.37,0-2.58,0.27-3.63,0.8L265.6,74h1.85l0.97-4.67C268.93,69.52,269.52,69.61,270.2,69.61z
		 M272.21,58.94c1.68,0,2.52,0.89,2.52,2.67c0,1.21-0.24,2.42-0.72,3.63c-0.84,2.13-2.2,3.19-4.08,3.19c-0.52,0-0.94-0.07-1.27-0.21
		l1.87-8.96C271.03,59.05,271.59,58.94,272.21,58.94z M288.94,58.59c-0.83-0.53-1.92-0.8-3.29-0.8c-1.22,0-2.31,0.3-3.28,0.91
		c-0.96,0.61-1.72,1.48-2.28,2.6c-0.71,1.44-1.07,2.86-1.07,4.25c0,1.24,0.34,2.24,1.03,2.98c0.7,0.75,1.75,1.12,3.15,1.12
		c1.46,0,2.66-0.27,3.62-0.8L288.94,58.59z M285.14,68.06c-0.45,0.24-1.04,0.35-1.76,0.35c-1.66,0-2.49-0.94-2.49-2.82
		c0-1.22,0.25-2.43,0.76-3.64c0.84-2.02,2.11-3.04,3.79-3.04c0.61,0,1.12,0.1,1.52,0.31L285.14,68.06z M300.56,61.31
		c0.04-0.19,0.06-0.41,0.07-0.64c0.01-0.07,0.01-0.12,0.01-0.16v-0.05c0-0.86-0.31-1.53-0.93-1.99c-0.62-0.46-1.51-0.69-2.67-0.69
		c-1.58,0-2.99,0.27-4.21,0.8l-2.25,10.85h1.87l2.1-10.07c0.77-0.25,1.5-0.37,2.19-0.37c1.36,0,2.04,0.52,2.04,1.55
		c0,0.21-0.02,0.43-0.07,0.64l-1.72,8.24h1.88L300.56,61.31z M312.87,58h-1.76l-4.18,8.09c-0.16,0.3-0.26,0.51-0.31,0.62l-0.03,0.08
		l-0.04,0.09c-0.04,0.1-0.06,0.15-0.06,0.16c-0.01,0.03-0.03,0.06-0.04,0.1l-0.03,0.08l-0.03,0.08l-0.03,0.08l-0.02,0.07l-0.02,0.05
		h-0.04c0.01-0.16,0.02-0.3,0.02-0.43v-0.11v-0.11v-0.11v-0.1c0-0.21-0.01-0.39-0.02-0.56l-0.7-8.09h-1.89l1.47,11.42L302.7,74h1.76
		L312.87,58z"/>
	<g>
		<path class="st0" d="M316.49,68.08c0.82,0,1.54,0.3,2.13,0.89c0.6,0.6,0.9,1.32,0.9,2.17c0,0.84-0.3,1.56-0.9,2.16
			c-0.6,0.59-1.32,0.89-2.16,0.89s-1.56-0.3-2.16-0.89c-0.6-0.6-0.9-1.32-0.9-2.16c0-0.84,0.3-1.56,0.9-2.17
			C314.89,68.38,315.62,68.08,316.49,68.08z M316.44,68.56c-0.7,0-1.3,0.25-1.8,0.76c-0.5,0.51-0.75,1.11-0.75,1.82
			c0,0.71,0.25,1.32,0.75,1.82c0.51,0.5,1.11,0.75,1.82,0.75c0.71,0,1.32-0.25,1.83-0.75c0.5-0.5,0.75-1.11,0.75-1.82
			c0-0.71-0.25-1.32-0.75-1.83C317.79,68.81,317.17,68.56,316.44,68.56z M317.81,72.93h-0.62l-1.16-1.64h-0.04v1.64h-0.51v-3.56
			c0.25-0.13,0.54-0.19,0.86-0.19c0.3,0,0.55,0.06,0.76,0.18c0.33,0.19,0.5,0.49,0.5,0.88c0,0.37-0.15,0.65-0.44,0.84
			c-0.15,0.1-0.34,0.16-0.56,0.18L317.81,72.93z M315.98,70.9h0.26c0.56,0,0.84-0.22,0.84-0.66c0-0.41-0.25-0.61-0.76-0.61
			c-0.11,0-0.22,0.02-0.33,0.06V70.9z"/>
	</g>
</g>
</svg>
